HIERARCHY
ROOT Hips
{
	OFFSET -0.001795 -0.223333 0.028219
	CHANNELS 6 Xposition Yposition Zposition Zrotation Yrotation Xrotation 
	JOINT LeftUpLeg
	{
		OFFSET 0.069520 -0.091406 -0.006815
		CHANNELS 3 Zrotation Yrotation Xrotation
		JOINT LeftLeg
		{
			OFFSET 0.034277 -0.375199 -0.004496
			CHANNELS 3 Zrotation Yrotation Xrotation
			JOINT LeftFoot
			{
				OFFSET -0.013596 -0.397961 -0.043693
				CHANNELS 3 Zrotation Yrotation Xrotation
				JOINT LeftToe
				{
					OFFSET 0.026358 -0.055791 0.119288
					CHANNELS 3 Zrotation Yrotation Xrotation
					End Site
					{
						OFFSET 0.000000 0.000000 0.000000
					}
				}
			}
		}
	}
	JOINT RightUpLeg
	{
		OFFSET -0.067670 -0.090522 -0.004320
		CHANNELS 3 Zrotation Yrotation Xrotation
		JOINT RightLeg
		{
			OFFSET -0.038290 -0.382569 -0.008850
			CHANNELS 3 Zrotation Yrotation Xrotation
			JOINT RightFoot
			{
				OFFSET 0.015774 -0.398415 -0.042312
				CHANNELS 3 Zrotation Yrotation Xrotation
				JOINT RightToe
				{
					OFFSET -0.025372 -0.048144 0.123348
					CHANNELS 3 Zrotation Yrotation Xrotation
					End Site
					{
						OFFSET 0.000000 0.000000 0.000000
					}
				}
			}
		}
	}
	JOINT Spine
	{
		OFFSET -0.002533 0.108963 -0.026696
		CHANNELS 3 Zrotation Yrotation Xrotation
		JOINT Spine1
		{
			OFFSET 0.005487 0.135180 0.001092
			CHANNELS 3 Zrotation Yrotation Xrotation
			JOINT Spine2
			{
				OFFSET 0.001457 0.052922 0.025425
				CHANNELS 3 Zrotation Yrotation Xrotation
				JOINT Neck
				{
					OFFSET -0.002778 0.213870 -0.042857
					CHANNELS 3 Zrotation Yrotation Xrotation
					JOINT Head
					{
						OFFSET 0.005152 0.064970 0.051349
						CHANNELS 3 Zrotation Yrotation Xrotation
						End Site
						{
							OFFSET 0.000000 0.000000 0.000000
						}
					}
				}
				JOINT LeftShoulder
				{
					OFFSET 0.078845 0.121749 -0.034090
					CHANNELS 3 Zrotation Yrotation Xrotation
					JOINT LeftArm
					{
						OFFSET 0.090977 0.030469 -0.008868
						CHANNELS 3 Zrotation Yrotation Xrotation
						JOINT LeftForeArm
						{
							OFFSET 0.259612 -0.012772 -0.027456
							CHANNELS 3 Zrotation Yrotation Xrotation
							JOINT LeftHand
							{
								OFFSET 0.249234 0.008986 -0.001171
								CHANNELS 3 Zrotation Yrotation Xrotation
								End Site
								{
									OFFSET 0.000000 0.000000 0.000000
								}
							}
						}
					}
				}
				JOINT RightShoulder
				{
					OFFSET -0.081759 0.118833 -0.038615
					CHANNELS 3 Zrotation Yrotation Xrotation
					JOINT RightArm
					{
						OFFSET -0.096012 0.032551 -0.009143
						CHANNELS 3 Zrotation Yrotation Xrotation
						JOINT RightForeArm
						{
							OFFSET -0.253742 -0.013329 -0.021401
							CHANNELS 3 Zrotation Yrotation Xrotation
							JOINT RightHand
							{
								OFFSET -0.255298 0.007772 -0.005559
								CHANNELS 3 Zrotation Yrotation Xrotation
								End Site
								{
									OFFSET 0.000000 0.000000 0.000000
								}
							}
						}
					}
				}
			}
		}
	}
}
MOTION
Frames: 17
Frame Time: 0.050000
0.031336 0.889446 -0.076161 -5.959420 -8.256076 8.279737 14.751539 2.079058 -31.529733 -7.467141 4.283945 43.391482 4.549041 9.105401 -2.096259 0.000000 0.000000 0.000000 -2.390132 3.723467 -33.908088 4.816890 0.926132 42.268360 0.291422 -3.798313 8.312068 0.000000 0.000000 0.000000 5.597650 -0.920130 8.702701 -0.199232 0.108201 -4.708692 -3.111038 9.455654 5.625839 11.094755 -7.670454 -5.334679 0.000000 0.000000 0.000000 -1.005151 14.284302 -5.053520 -14.514652 -4.433569 -1.220949 -152.458726 -45.394789 122.631452 0.000000 0.000000 0.000000 2.970609 -23.116281 -9.039401 18.967052 3.594465 -1.546703 152.300294 40.993171 123.225048 0.000000 0.000000 0.000000 
0.031116 0.888313 -0.075968 -6.225481 -8.057899 8.676657 15.017063 2.185433 -32.152561 -7.613856 4.375119 43.846179 4.798655 9.581569 -2.433461 0.000000 0.000000 0.000000 -2.437587 3.786347 -34.568204 5.499319 0.575477 42.873334 -0.049562 -4.429576 8.146894 0.000000 0.000000 0.000000 5.304448 -0.931639 9.116412 0.229954 -0.064709 -4.988376 -2.951132 9.689171 5.673631 11.173441 -7.564808 -5.908604 0.000000 0.000000 0.000000 -2.012269 16.849961 -6.251754 -18.583617 -3.803221 -1.594524 -149.423762 -45.764170 117.038338 0.000000 0.000000 0.000000 4.653035 -24.862407 -10.201019 22.248523 2.184847 -1.941349 151.410822 41.480746 122.240555 0.000000 0.000000 0.000000 
0.030957 0.887447 -0.076168 -6.368317 -8.064587 9.184283 15.710530 2.460900 -32.789301 -8.211417 4.766998 44.248279 4.461213 8.785199 -2.716748 0.000000 0.000000 0.000000 -2.473150 3.899615 -35.402727 6.108161 0.292653 43.477093 -0.596688 -5.520668 7.965981 0.000000 0.000000 0.000000 5.135825 -0.955729 9.570462 0.385930 -0.119069 -5.903765 -2.983040 10.122773 5.873149 11.506741 -7.462088 -7.202428 0.000000 0.000000 0.000000 -3.535448 19.027383 -7.549807 -21.738656 -2.777720 -1.997331 -146.622835 -46.369466 112.495303 0.000000 0.000000 0.000000 6.505852 -26.566824 -11.460340 25.054389 0.571523 -2.410678 151.664589 42.138939 123.892514 0.000000 0.000000 0.000000 
0.030990 0.886282 -0.076861 -6.516149 -7.834120 9.698164 16.016116 2.622305 -33.797033 -8.496062 4.995570 45.201291 4.460698 8.688975 -3.148202 0.000000 0.000000 0.000000 -2.628855 3.963953 -36.322764 6.783122 -0.078360 44.252889 -1.032076 -6.317792 7.690816 0.000000 0.000000 0.000000 4.833133 -0.963678 10.017946 0.694276 -0.227371 -6.604268 -3.092893 10.355585 6.187340 11.738881 -7.006553 -9.541558 0.000000 0.000000 0.000000 -4.324480 20.547730 -8.416503 -24.043377 -1.387068 -2.442152 -145.681966 -46.084395 110.319017 0.000000 0.000000 0.000000 7.526145 -27.829015 -12.334821 27.362081 -0.707276 -2.842811 152.195222 42.794710 126.139004 0.000000 0.000000 0.000000 
0.031169 0.886031 -0.077810 -6.456839 -7.468213 9.880586 16.023039 2.646366 -34.584042 -8.627795 5.061914 45.858105 4.370874 8.567780 -2.759981 0.000000 0.000000 0.000000 -2.702236 3.955118 -36.715403 7.066657 -0.294271 44.610183 -1.581194 -7.429975 7.606842 0.000000 0.000000 0.000000 4.715702 -0.993594 10.562996 0.747901 -0.227533 -7.429860 -3.271769 10.462894 6.682913 11.769966 -6.822907 -10.322177 0.000000 0.000000 0.000000 -4.834390 21.459462 -8.976485 -24.721036 -0.737003 -2.636775 -146.162805 -46.155542 111.163634 0.000000 0.000000 0.000000 8.753082 -28.360557 -12.965285 28.156278 -1.456809 -3.094631 152.503830 42.992858 127.203280 0.000000 0.000000 0.000000 
0.031332 0.885010 -0.078580 -6.479193 -7.138378 10.197467 16.054785 2.655976 -35.159232 -8.866978 5.154670 46.093666 4.600864 9.002764 -3.099073 0.000000 0.000000 0.000000 -2.795902 3.980663 -37.386316 7.410509 -0.534802 45.341073 -1.980281 -8.136615 7.272709 0.000000 0.000000 0.000000 4.462802 -0.993279 10.908100 0.824046 -0.234740 -8.193935 -3.463315 10.617101 7.019454 12.029771 -6.978833 -10.368500 0.000000 0.000000 0.000000 -4.365413 21.975756 -9.023245 -25.142177 -0.261830 -2.780056 -146.831895 -45.017742 110.648475 0.000000 0.000000 0.000000 8.490702 -28.782470 -13.087589 28.683467 -2.140232 -3.282769 151.886118 42.754984 125.946831 0.000000 0.000000 0.000000 
0.031406 0.884431 -0.079015 -6.547160 -6.857367 10.451493 16.350398 2.736628 -35.505136 -9.386875 5.392812 46.059869 4.758200 9.316052 -3.271039 0.000000 0.000000 0.000000 -2.845780 3.970039 -37.666998 7.607072 -0.701135 45.409757 -2.165599 -8.448568 7.069688 0.000000 0.000000 0.000000 4.264941 -0.980086 10.991844 0.994946 -0.289916 -8.349384 -3.666997 10.630354 6.854112 11.971285 -6.843913 -10.628466 0.000000 0.000000 0.000000 -4.248700 22.799602 -9.293462 -24.704734 -0.038105 -2.757262 -146.927786 -44.526264 110.028024 0.000000 0.000000 0.000000 8.102823 -29.206709 -13.161868 28.988880 -2.552669 -3.370053 150.886869 43.049351 124.508304 0.000000 0.000000 0.000000 
0.031437 0.883753 -0.079119 -6.552231 -6.831479 10.940666 16.346503 2.766863 -35.883232 -9.761951 5.610222 45.997193 5.234305 10.259525 -3.917495 0.000000 0.000000 0.000000 -2.886053 4.010304 -38.049209 7.797609 -0.806070 45.611932 -2.486717 -8.759003 5.876101 0.000000 0.000000 0.000000 4.256046 -0.985317 10.985697 0.772295 -0.186091 -9.255540 -3.673787 10.784375 7.207542 12.261377 -6.874304 -11.289344 0.000000 0.000000 0.000000 -3.564650 23.735686 -9.402619 -24.951788 0.197792 -2.850435 -146.219406 -43.750530 107.551980 0.000000 0.000000 0.000000 7.444295 -30.031803 -13.346701 29.482782 -3.114705 -3.520899 149.770052 42.563401 121.741762 0.000000 0.000000 0.000000 
0.031626 0.883484 -0.079052 -6.694270 -6.920844 11.136263 16.520988 2.858598 -36.035969 -10.036685 5.775007 45.831335 5.557171 11.016758 -3.738393 0.000000 0.000000 0.000000 -2.806677 4.077729 -38.272687 8.051115 -0.915416 45.945910 -2.688399 -9.022196 5.300427 0.000000 0.000000 0.000000 4.232315 -0.972538 10.817602 0.744906 -0.173755 -9.437063 -3.634385 10.872859 6.982672 11.917645 -6.724629 -10.888993 0.000000 0.000000 0.000000 -3.522948 24.312377 -9.594840 -24.868141 0.155588 -2.827116 -145.428559 -43.476538 105.712149 0.000000 0.000000 0.000000 6.910630 -30.505560 -13.385494 29.551229 -3.377173 -3.548915 148.559492 42.261496 118.944271 0.000000 0.000000 0.000000 
0.031952 0.882924 -0.079004 -6.689706 -6.985325 11.179392 16.336506 2.830327 -36.229934 -9.643784 5.586129 46.050013 5.438154 10.767732 -3.635219 0.000000 0.000000 0.000000 -3.027283 4.050622 -38.480671 8.404479 -1.092637 46.254225 -2.730866 -9.079122 5.185832 0.000000 0.000000 0.000000 4.414884 -0.991256 10.739607 0.640861 -0.131181 -9.744606 -3.776497 10.937702 6.771024 12.285901 -6.864495 -11.298551 0.000000 0.000000 0.000000 -3.134036 24.519635 -9.506473 -25.226732 0.037088 -2.849483 -144.919658 -43.493114 104.741213 0.000000 0.000000 0.000000 5.988839 -31.005648 -13.302916 29.907578 -3.108730 -3.505270 147.844136 41.979770 117.284798 0.000000 0.000000 0.000000 
0.032217 0.882242 -0.079195 -6.580520 -7.106027 11.100490 16.022772 2.751222 -36.267152 -9.226098 5.383650 46.207376 5.349942 10.573743 -3.614948 0.000000 0.000000 0.000000 -3.112168 4.026175 -38.371113 8.354260 -1.037929 46.459141 -2.736319 -8.827903 4.384196 0.000000 0.000000 0.000000 4.538228 -1.003304 10.720014 0.618333 -0.120769 -9.942476 -3.934129 10.780854 6.546091 11.867111 -6.641997 -11.050186 0.000000 0.000000 0.000000 -3.171798 24.660978 -9.562388 -25.621841 -0.284829 -2.838124 -144.004576 -43.836224 103.738814 0.000000 0.000000 0.000000 5.510640 -30.477291 -12.907210 29.639314 -2.358694 -3.323185 147.181060 41.794032 115.643375 0.000000 0.000000 0.000000 
0.032157 0.881583 -0.079681 -6.634995 -6.929250 10.986750 15.806196 2.667333 -36.458243 -8.611683 5.030622 46.688017 5.120546 10.031602 -3.754179 0.000000 0.000000 0.000000 -3.236537 3.967238 -38.385033 8.674708 -1.254140 46.515652 -2.809731 -9.057003 4.614062 0.000000 0.000000 0.000000 4.699072 -1.031319 10.805972 0.604236 -0.111887 -10.010166 -3.892323 10.760248 6.624793 12.132371 -6.684245 -11.603302 0.000000 0.000000 0.000000 -3.521385 24.312395 -9.573964 -25.948715 -0.714686 -2.799768 -143.688985 -44.076544 103.484001 0.000000 0.000000 0.000000 5.792282 -30.353143 -12.944387 29.410064 -1.803417 -3.206217 146.787280 41.443103 114.427048 0.000000 0.000000 0.000000 
0.031611 0.881155 -0.080442 -6.646237 -7.106211 11.002196 15.649355 2.634571 -36.328960 -8.263474 4.838688 46.432118 5.181077 10.137785 -3.934512 0.000000 0.000000 0.000000 -3.099500 4.012855 -38.244259 8.583277 -1.160123 46.355378 -2.876482 -8.990870 3.913685 0.000000 0.000000 0.000000 4.807289 -1.036622 10.711632 0.777717 -0.179333 -9.908968 -3.928681 10.934280 6.582048 12.255044 -6.665654 -11.979388 0.000000 0.000000 0.000000 -3.536485 24.136085 -9.512018 -26.401871 -1.303020 -2.745926 -143.263363 -44.745912 103.631492 0.000000 0.000000 0.000000 5.807036 -30.086306 -12.830832 29.599699 -1.266264 -3.126437 146.950127 41.967525 115.619049 0.000000 0.000000 0.000000 
0.030744 0.881062 -0.081305 -6.675371 -7.073625 10.759475 15.570494 2.577664 -36.054992 -7.850512 4.547853 46.103519 5.052313 9.894646 -3.689706 0.000000 0.000000 0.000000 -2.536957 4.120757 -37.890506 8.241456 -0.971407 46.212831 -3.387004 -10.081512 3.657580 0.000000 0.000000 0.000000 4.958449 -1.053589 10.730930 0.819318 -0.198245 -9.742365 -3.845928 11.065668 6.814433 12.266251 -6.781556 -11.575763 0.000000 0.000000 0.000000 -3.297534 23.479737 -9.179193 -26.784723 -1.848341 -2.698223 -143.838480 -45.934718 106.134066 0.000000 0.000000 0.000000 6.197008 -29.671173 -12.774673 29.998314 -1.124892 -3.165415 147.157783 42.474192 116.868608 0.000000 0.000000 0.000000 
0.029942 0.881256 -0.082276 -6.658064 -7.112325 10.394693 15.277805 2.452547 -35.687517 -7.254234 4.183644 45.937531 5.000240 9.811562 -3.511786 0.000000 0.000000 0.000000 -2.145542 4.179153 -37.496963 7.855766 -0.747169 46.250171 -3.510293 -10.289263 3.432888 0.000000 0.000000 0.000000 5.229553 -1.089289 10.821184 0.590387 -0.122047 -9.535747 -3.572394 11.179405 7.115213 11.935774 -6.602538 -11.424427 0.000000 0.000000 0.000000 -2.548245 22.527199 -8.544192 -26.588998 -2.310506 -2.612663 -144.830041 -46.707542 108.764367 0.000000 0.000000 0.000000 6.194014 -29.673124 -12.775768 30.019708 -0.883359 -3.137029 147.933729 42.442125 118.358806 0.000000 0.000000 0.000000 
0.029532 0.881852 -0.083473 -6.564236 -7.146188 9.843109 14.910266 2.282230 -35.052020 -6.792881 3.911326 45.879734 4.989958 9.730006 -3.808531 0.000000 0.000000 0.000000 -1.869368 4.185511 -36.984289 7.423767 -0.500701 46.167405 -3.517051 -10.385526 3.735028 0.000000 0.000000 0.000000 5.309807 -1.086174 10.782804 0.649117 -0.155937 -9.015749 -3.332782 11.359322 7.400767 11.721085 -6.493527 -11.288992 0.000000 0.000000 0.000000 -2.340282 21.534291 -8.105519 -25.570166 -3.142133 -2.369387 -146.098551 -47.090564 111.320598 0.000000 0.000000 0.000000 5.813396 -29.117187 -12.413352 28.943734 -0.485799 -2.984943 149.621496 42.495794 121.914510 0.000000 0.000000 0.000000 
0.029556 0.882708 -0.084678 -6.556824 -7.049910 9.463035 14.553834 2.125179 -34.731680 -6.226972 3.566250 46.004569 4.895964 9.482739 -3.977142 0.000000 0.000000 0.000000 -1.697114 4.168138 -36.622362 7.062479 -0.328798 45.977448 -3.338857 -10.126621 4.258933 0.000000 0.000000 0.000000 5.630879 -1.103084 10.554679 0.549529 -0.132466 -8.261420 -3.188475 11.436421 7.404041 11.421815 -6.293453 -11.222670 0.000000 0.000000 0.000000 -1.335675 20.468821 -7.345845 -24.566052 -4.174644 -2.104964 -146.886572 -47.023705 112.368011 0.000000 0.000000 0.000000 4.272754 -28.632657 -11.743075 28.052847 -0.374735 -2.864463 150.562633 40.972282 121.973743 0.000000 0.000000 0.000000 
